<?xml version="1.0" standalone="no"?>
<!DOCTYPE svg PUBLIC "-//W3C//DTD SVG 20010904//EN"
 "http://www.w3.org/TR/2001/REC-SVG-20010904/DTD/svg10.dtd">
<svg version="1.0" xmlns="http://www.w3.org/2000/svg"
 width="700.000000pt" height="700.000000pt" viewBox="0 0 700.000000 700.000000"
 preserveAspectRatio="xMidYMid meet">
<metadata>
Created by potrace 1.14, written by Peter Selinger 2001-2017
</metadata>
<g transform="translate(0.000000,700.000000) scale(0.100000,-0.100000)"
fill="#000000" stroke="none">
<path d="M3275 6988 c-50 -18 -102 -66 -125 -114 -44 -90 -19 -213 54 -269 68
-51 83 -54 375 -55 220 0 280 -4 309 -16 47 -19 79 -49 103 -96 18 -36 19 -81
19 -1427 0 -1378 0 -1391 -21 -1445 -27 -73 -97 -150 -168 -184 -79 -38 -190
-38 -273 0 -69 32 -129 92 -165 166 l-28 57 -3 645 c-1 373 -7 660 -12 681
-36 133 -194 202 -316 138 -31 -17 -359 -338 -1047 -1026 -943 -943 -1006
-1004 -1062 -1027 -77 -32 -195 -31 -266 1 -61 27 -140 106 -170 168 -34 71
-34 207 1 280 19 41 213 240 1026 1055 551 553 1011 1021 1021 1042 28 52 29
139 4 192 -55 113 -187 162 -297 110 -44 -21 -2025 -1996 -2085 -2079 -59 -81
-112 -199 -135 -301 -15 -70 -12 -259 7 -337 67 -279 279 -501 554 -578 83
-24 263 -32 350 -17 112 20 231 71 325 141 30 22 412 398 849 834 437 436 795
792 797 790 2 -2 4 -166 4 -364 1 -277 5 -376 16 -425 71 -308 299 -538 611
-614 15 -4 201 -10 412 -13 l383 -6 -804 -805 c-442 -443 -819 -827 -837 -853
-41 -60 -93 -172 -117 -252 -27 -92 -26 -305 4 -408 115 -401 510 -643 915
-559 106 22 193 59 285 119 76 50 2072 2045 2094 2093 54 116 -2 262 -118 306
-54 20 -147 15 -190 -12 -16 -9 -481 -468 -1034 -1019 -806 -804 -1015 -1007
-1055 -1026 -69 -33 -208 -34 -275 -2 -68 32 -132 94 -165 159 -25 49 -30 72
-32 139 -3 159 -89 60 1057 1210 1102 1105 1045 1041 1043 1153 -2 77 -48 147
-124 188 -30 17 -63 19 -307 22 -253 3 -273 4 -266 20 4 9 18 53 32 97 23 74
26 98 30 313 l4 232 966 0 c919 0 969 -1 1007 -19 48 -22 79 -54 100 -103 12
-31 15 -87 15 -310 0 -247 2 -277 20 -315 81 -181 328 -182 410 -2 18 41 19
64 19 348 -1 167 -5 315 -9 330 -4 14 -16 51 -25 81 -55 179 -219 342 -415
412 l-65 23 -1012 3 -1013 3 -1 977 c0 537 -2 992 -5 1011 -26 203 -190 417
-382 498 -107 45 -161 51 -470 52 -189 0 -308 -4 -327 -11z"/>
</g>
</svg>
