<?xml version="1.0" encoding="UTF-8"?>
<!DOCTYPE svg PUBLIC "-//W3C//DTD SVG 1.0//EN" "http://www.w3.org/TR/2001/REC-SVG-20010904/DTD/svg10.dtd">
<!-- Creator: CorelDRAW X6 -->
<svg xmlns="http://www.w3.org/2000/svg" xml:space="preserve" width="253px" height="59px" version="1.0" style="shape-rendering:geometricPrecision; text-rendering:geometricPrecision; image-rendering:optimizeQuality; fill-rule:evenodd; clip-rule:evenodd"
viewBox="0 0 33968691 7952946"
 xmlns:xlink="http://www.w3.org/1999/xlink">
 <defs>
  <style type="text/css">
   <![CDATA[
    .fil2 {fill:#B32224}
    .fil0 {fill:#3D4041}
    .fil3 {fill:#3D4041;fill-rule:nonzero}
    .fil1 {fill:url(#id0)}
   ]]>
  </style>
  <linearGradient id="id0" gradientUnits="userSpaceOnUse" x1="-315219" y1="1.12959e+006" x2="8.18127e+006" y2="6.91025e+006">
   <stop offset="0" style="stop-color:#D9113C"/>
   <stop offset="0.341176" style="stop-color:#F58634"/>
   <stop offset="0.658824" style="stop-color:#ED2F59"/>
   <stop offset="1" style="stop-color:#C33437"/>
  </linearGradient>
 </defs>
 <g id="Camada_x0020_1">
  <metadata id="CorelCorpID_0Corel-Layer"/>
  <path class="fil0" d="M11948843 4086911l823566 -2075088c64852,-185834 248624,-303169 442861,-303169 270981,0 468707,197725 468707,468706l0 3046909c0,168234 -48837,215168 -215168,215168l-63107 0c-172990,0 -215326,-42178 -215326,-215168l476 -2936233 -799306 2019592c-70877,193127 -240220,296985 -442703,296985 -198835,0 -373253,-105126 -437311,-297144l-799148 -2019275 0 2936075c0,168075 -49154,215168 -215167,215168l-63266 0c-172832,0 -215167,-42178 -215167,-215168l317 -3046909c0,-270981 197725,-468706 468865,-468706 194078,0 378168,117176 442702,302693l818175 2075564zm17496577 -289533l1460189 0 0 -152694c0,-473463 -279068,-656443 -730174,-656443 -451106,0 -730015,182980 -730015,656443l0 152694zm-2813983 374046l-628219 0c-340430,0 -701632,43129 -701632,458400 0,362629 283982,446825 599836,446825 394658,0 730015,-43287 730015,-509298l0 -395927zm-7104327 -374046l1460188 0 0 -152694c0,-473463 -278909,-656443 -730015,-656443 -451106,0 -730173,182980 -730173,656443l0 152694zm-3085757 492650l0 -526423c0,-560830 -214850,-752689 -775205,-752689 -564001,0 -786780,185358 -786780,752689l0 526423c0,562574 229280,752689 786780,752689 560355,0 775205,-191859 775205,-752689zm15409596 871927l0 -45349c0,-162683 63583,-213899 224364,-180125 268603,74207 544340,111944 823091,111944 215960,0 582870,9989 582870,-288581 0,-211045 -179174,-296034 -348358,-376583l-690692 -328379c-360885,-171563 -545926,-350103 -545926,-766802 0,-623145 504541,-747456 1036196,-747456 244501,0 486783,29492 718758,109407 139533,48044 192810,88001 192810,241805l0 50898c0,162050 -69767,215961 -226267,168392 -224364,-74841 -460620,-105919 -696717,-105919 -210093,0 -537522,0 -537522,282873 0,172515 135253,276372 280019,342492l719233 328539c372618,175368 585883,354542 585883,789475 0,649783 -561782,764423 -1104219,764423 -273518,0 -543706,-35359 -807393,-108614 -139375,-38848 -206130,-92917 -206130,-242440zm-2405529 -939474l0 135569c0,565270 333771,684667 848936,684667 258296,0 511835,-36152 760617,-106236 161574,-45507 224522,18869 224522,180125l0 50898c0,154439 -55020,193286 -199786,236573 -254491,76427 -520081,108932 -785353,108932 -858133,0 -1341902,-317122 -1341902,-1217273l0 -526581c0,-817066 411624,-1228531 1228689,-1228531 761093,0 1194758,395292 1194758,1166375 0,101479 -2062,210410 -17284,309669 -19661,164428 -72621,205813 -237683,205813l-1675514 0zm-1761138 475207l0 -3057057c0,-172356 43129,-215326 215485,-215326l62156 0c165696,0 215484,47569 215484,215326l0 2983485c0,179174 32822,396085 254332,396085l28383 0c150474,0 209776,16966 209776,181235l0 39799c0,149999 -32822,216278 -185992,242916 -34725,6976 -73255,6342 -108615,6342 -485038,0 -691009,-335356 -691009,-792805zm-1052845 -928692l0 -305547c0,-425261 -354067,-480916 -707499,-480916 -202007,0 -417650,13795 -615693,61680 -154438,32030 -222302,-14111 -222302,-175051l0 -45348c0,-152853 51849,-195348 196932,-225950 202641,-42494 411783,-57240 618547,-57240 637891,0 1222981,190431 1222981,922825l0 1121026c0,761728 -547987,928534 -1217431,928534 -593019,0 -1098353,-219449 -1098353,-883185 0,-720184 574943,-860828 1188891,-860828l633927 0zm-4687381 1364576l0 -79280c0,-150316 61204,-230389 215801,-173466 294448,108297 615693,144925 927899,144925 329807,0 809454,-9197 809454,-446984 0,-314902 -264004,-456973 -504699,-604910l-837837 -515165c-347724,-213740 -576686,-510725 -576686,-929168 0,-726368 600946,-872085 1217431,-872085 288581,0 590482,33773 861462,138106 139217,53594 191701,82769 191701,241489l0 73572c0,152219 -62790,225315 -216119,167916 -265431,-99576 -554964,-133825 -837044,-133825 -299839,0 -696083,14904 -696083,401635 0,264321 176796,376107 380071,508981l854803 532131c398464,247989 678641,486465 678641,985615 0,772668 -687679,939950 -1336353,939950 -308876,0 -636939,-31712 -930119,-138265 -132715,-54387 -202323,-80391 -202323,-241172zm-2416946 -911091l0 135569c0,565270 333929,684667 849094,684667 258296,0 511835,-36152 760459,-106236 161732,-45507 224681,18869 224681,180125l0 50898c0,154439 -55021,193286 -199787,236573 -254491,76427 -520080,108932 -785353,108932 -858132,0 -1341902,-317122 -1341902,-1217273l0 -526581c0,-817066 411466,-1228531 1228531,-1228531 761251,0 1194757,395292 1194757,1166375 0,101479 -1902,210410 -17124,309669 -19662,164428 -72780,205813 -237842,205813l-1675514 0zm-1556594 -645661l0 1664415c0,172198 -42970,215326 -215485,215326l-62314 0c-165696,0 -215326,-47727 -215326,-215326l0 -1687089c0,-665322 333454,-1013522 1002264,-1013522 61998,0 123836,4281 185200,11416 160146,18869 200104,74048 200104,232133l0 56607c0,164745 -52960,206922 -213265,181235 -56923,-4757 -114957,-11099 -172039,-11099 -397354,0 -509139,189004 -509139,565904zm-2304368 1936189c-841325,0 -1279587,-369764 -1279587,-1222981l0 -526423c0,-839105 457765,-1222981 1279587,-1222981 840691,0 1268330,374045 1268330,1222981l0 526423c0,832286 -450313,1222981 -1268330,1222981z"/>
  <g id="_198022336">
   <path class="fil1" d="M4852761 215009c132715,132874 215008,316170 214850,518336l0 2151990 2151990 0c202324,0 385621,82293 518336,215009l0 0c132716,132874 215009,316012 215009,518178l0 529118 0 0c0,140802 -114164,254966 -254966,254966 -140961,0 -255125,-114164 -255125,-254966l0 -529118c0,-123044 -100052,-223096 -223095,-223096l-2152149 0 0 376107c0,132240 -28700,260040 -83245,376107l549573 0c103223,0 196140,62314 235622,157451 39481,95295 17600,205019 -55180,277957l-2207328 2207329c-149206,149047 -149206,391804 0,540851 149048,149206 391804,149206 541010,159l2203840 -2203840c99577,-99576 260992,-99576 360568,0 99577,99576 99577,260991 0,360568l-2203840 2203840c-348041,348041 -914263,348041 -1262304,0 -348042,-348042 -348042,-914263 0,-1262305l1771919 -1771919 -725575 0c-239744,0 -459510,-87368 -629646,-257503l-317 -159 -2061 -2061 -793 -793 -4757 -4757 -2061 -2220 -159 -158c-167599,-168868 -257661,-390695 -257661,-624572l0 -730650 -1771920 1771920c-347883,347883 -914104,347883 -1262146,-159 -348200,-348041 -348200,-914263 0,-1262145l2203681 -2203999c99577,-99418 260992,-99418 360727,0 99576,99735 99576,261150 0,360726l-2203840 2203840c-149048,149206 -149048,391805 158,541011 149048,149206 391646,149206 540852,0l2207328 -2207329c72780,-72938 182504,-94819 277799,-55179 95296,39323 157451,132399 157451,235463l0 237683 0 311890 0 794708c0,99735 41702,197725 112420,270346 71036,71036 171563,113213 271932,114006 97357,-2062 188688,-41068 257821,-110042 71035,-71035 110041,-165537 110041,-266065l0 -376107 0 -510091 0 -228645 0 -1923504c0,-122885 -99893,-223095 -223095,-223095l-529119 0c-140802,0 -254966,-114164 -254966,-254966 0,-140802 114164,-255125 254966,-255125l0 0 529119 0c202165,0 385462,82293 518336,215009l0 0z"/>
   <path class="fil2" d="M5067611 2885335l272725 0 0 510091 -273359 0 634 -510091zm-150157 1772396l-724783 0 0 -4757c231499,-3013 449045,-94503 612839,-258455 72462,-72462 130654,-155231 173465,-244977l291911 0c-57399,162843 -150791,312207 -276213,437470 -24736,24894 -50581,48362 -77219,70719z"/>
  </g>
  <path class="fil3" d="M11023164 6693496c0,-211362 -92441,-320293 -348200,-320293l-254174 0c-125421,0 -178381,54545 -178381,178222l0 838471c0,44556 11734,56131 56131,56131l16649 0c44555,0 55972,-11575 55972,-56131l0 -378010 272408 0 235938 379596c28066,44555 47886,54545 99101,54545l18076 0c51215,0 57716,-13320 29809,-54545l-244342 -389426c176637,-28066 241013,-130338 241013,-308560zm-348200 -199787c171563,0 219448,59460 219448,199787 0,136997 -47885,197884 -219448,197884l-303803 0 0 -320135c0,-54386 23150,-77536 77695,-77536l226108 0zm1966315 453802c41226,0 51057,-9831 51057,-51057l0 -18235c0,-41225 -9831,-51056 -51057,-51056l-450630 0 0 -255918c0,-54386 23150,-77536 77536,-77536l439056 0c41225,0 51056,-9831 51056,-51215l0 -18076c0,-41226 -9831,-51215 -51056,-51215l-467121 0c-125422,0 -178223,54545 -178223,178222l0 716379c0,123678 52801,178223 178223,178223l467121 0c41225,0 51056,-9990 51056,-51216l0 -18076c0,-41384 -9831,-51215 -51056,-51215l-439056 0c-54386,0 -77536,-23150 -77536,-77536l0 -300473 450630 0zm1317642 -574308c-125421,0 -178222,54545 -178222,178222l0 838471c0,44556 11575,56131 56130,56131l16491 0c44555,0 56130,-11575 56130,-56131l0 -336784 293814 0c257345,0 358031,-117018 358031,-339955 0,-224363 -98942,-339954 -358031,-339954l-244343 0zm244343 120506c173307,0 229438,66120 229438,219448 0,156817 -52960,221193 -229438,221193l-293814 0 0 -363105c0,-54386 23150,-77536 77537,-77536l216277 0zm2144538 199787c0,-211362 -92441,-320293 -348200,-320293l-254173 0c-125422,0 -178223,54545 -178223,178222l0 838471c0,44556 11575,56131 56131,56131l16490 0c44556,0 56131,-11575 56131,-56131l0 -378010 272249 0 236097 379596c27907,44555 47727,54545 98942,54545l18076 0c51216,0 57875,-13320 29810,-54545l-244184 -389426c176478,-28066 240854,-130338 240854,-308560zm-348200 -199787c171563,0 219449,59460 219449,199787 0,136997 -47886,197884 -219449,197884l-303644 0 0 -320135c0,-54386 22991,-77536 77536,-77536l226108 0zm1966316 453802c41225,0 51215,-9831 51215,-51057l0 -18235c0,-41225 -9990,-51056 -51215,-51056l-450631 0 0 -255918c0,-54386 23150,-77536 77536,-77536l439056 0c41226,0 51215,-9831 51215,-51215l0 -18076c0,-41226 -9989,-51215 -51215,-51215l-466962 0c-125422,0 -178382,54545 -178382,178222l0 716379c0,123678 52960,178223 178382,178223l466962 0c41226,0 51215,-9990 51215,-51216l0 -18076c0,-41384 -9989,-51215 -51215,-51215l-439056 0c-54386,0 -77536,-23150 -77536,-77536l0 -300473 450631 0zm1094864 414320c0,41226 16490,46141 52800,61046 72621,26479 161733,39640 267493,39640 252429,0 379436,-87526 379436,-264163 0,-131923 -65961,-199628 -192968,-278909l-249258 -155072c-80866,-52801 -115433,-85782 -115433,-156817 0,-90697 60888,-127008 212789,-127008 94185,0 176637,13161 247514,39641 34725,13160 49630,1585 49630,-39641l0 -21405c0,-39641 -9990,-46300 -49630,-61205 -67706,-26321 -150157,-39482 -247514,-39482 -231023,0 -344870,74207 -344870,244184 0,108932 54386,196458 163318,262419l244342 150157c110517,67706 151743,105602 151743,184882 0,104016 -75951,140327 -245928,140327 -105602,0 -196299,-14905 -273835,-42970 -34725,-13161 -49629,0 -49629,41226l0 23150zm2303099 -414320c41226,0 51215,-9831 51215,-51057l0 -18235c0,-41225 -9989,-51056 -51215,-51056l-450631 0 0 -255918c0,-54386 23150,-77536 77537,-77536l439055 0c41226,0 51215,-9831 51215,-51215l0 -18076c0,-41226 -9989,-51215 -51215,-51215l-467121 0c-125263,0 -178222,54545 -178222,178222l0 716379c0,123678 52959,178223 178222,178223l467121 0c41226,0 51215,-9990 51215,-51216l0 -18076c0,-41384 -9989,-51215 -51215,-51215l-439055 0c-54387,0 -77537,-23150 -77537,-77536l0 -300473 450631 0zm1139419 442385c0,44556 11575,56131 56131,56131l13319 0c44397,0 55972,-11575 55972,-56131l0 -854961c0,-44556 14905,-65962 42970,-65962 28065,0 39640,13161 54387,64376l239268 767436c34725,117176 79281,159988 179967,159988 107346,0 158402,-52801 158402,-184724l0 -846716c0,-44555 -11574,-56130 -56130,-56130l-14746 0c-44556,0 -56131,11575 -56131,56130l0 858133c0,41384 -13160,62790 -39640,62790 -26321,0 -41226,-11575 -56131,-59461l-242598 -780596c-32981,-112261 -74207,-151743 -171563,-151743 -107346,0 -163477,52643 -163477,184724l0 846716zm1798083 -947402c0,41384 9830,51215 51056,51215l293814 0 0 896187c0,44556 11575,56131 56130,56131l16491 0c44555,0 56130,-11575 56130,-56131l0 -896187 293655 0c41385,0 51216,-9831 51216,-51215l0 -18076c0,-41226 -9831,-51215 -51216,-51215l-716220 0c-41226,0 -51056,9989 -51056,51215l0 18076zm2294695 158561c-24736,-94185 -52801,-158561 -84196,-191542 -29651,-34566 -79122,-51057 -146827,-51057 -67706,0 -117177,16491 -148572,51057 -29651,32981 -57716,97357 -84196,191542l-221034 790427c-11575,41225 -3330,54545 41226,54545l18076 0c44555,0 59460,-9990 71035,-54545l75951 -277165 493442 0 77536 277165c11575,44555 26321,54545 71035,54545l16332 0c44714,0 52960,-13320 41385,-54545l-221193 -790427zm-333454 -14905c24894,-90697 44556,-112261 102431,-112261 54386,0 75792,21564 100686,112261l113847 410990 -430811 0 113847 -410990zm1603369 201373c0,-211362 85782,-308719 285569,-308719 84037,0 161573,14905 230865,44714 34725,14747 51215,3172 51215,-38054l0 -21406c0,-32981 -8245,-47885 -47886,-62790 -70876,-28065 -146827,-42812 -229279,-42812 -285568,0 -420979,143498 -420979,429067l0 264004c0,264004 118920,394500 369764,409246l-21406 82610c-6659,28065 -3330,32981 27907,28065 11575,-1744 23150,-1744 34725,-1744 54545,0 74365,14905 74365,56131 0,46300 -21564,61046 -81025,61046 -18076,0 -36310,-1586 -52642,-4916 -21564,-4915 -31395,4916 -31395,26480l0 9831c0,24735 4915,31395 29651,36310 19820,4916 41226,8246 66120,8246 112102,0 163318,-39641 163318,-136997 0,-84038 -49471,-122092 -148572,-110517l13161 -52801c89111,-1744 160146,-16490 214533,-41385 39640,-18075 49471,-31236 49471,-65961l0 -19820c0,-41226 -11417,-51057 -49471,-36311 -72463,28066 -151743,42971 -237525,42971 -209618,0 -290484,-98943 -290484,-290484l0 -264004zm2271546 244184c0,108931 -19820,188212 -59461,237683 -39481,47885 -117018,72621 -232609,72621 -115591,0 -193127,-24736 -232609,-72621 -39798,-49471 -59460,-128752 -59460,-237683l0 -240855c0,-110675 19662,-189797 59460,-237683 39482,-49629 117018,-74365 232609,-74365 115591,0 193128,24736 232609,74365 39641,47886 59461,127008 59461,237683l0 240855zm-292070 430810c156817,0 267334,-36311 328380,-107346 61046,-70877 92441,-179808 92441,-323464l0 -240855c0,-143656 -31395,-252587 -92441,-323464 -61046,-71036 -169977,-107346 -328380,-107346 -156816,0 -267334,36310 -328380,107346 -61046,70877 -92441,179808 -92441,323464l0 240855c0,143656 29651,252587 90697,323464 61046,71035 171722,107346 330124,107346zm-212947 -1196502c28065,0 36310,-6659 37896,-31395 5074,-41226 23150,-62790 56289,-62790 18076,0 51057,18235 97357,52959 47727,34567 89111,52643 127007,52643 89111,0 136997,-49471 143656,-148413 1586,-24736 -6659,-31396 -34724,-31396l-9831 0c-28066,0 -36311,6660 -38055,31396 -4915,41225 -24735,62631 -56131,62631 -51215,0 -135252,-105601 -226108,-105601 -87367,0 -135252,49471 -143497,148571 -1586,24736 6501,31395 34566,31395l11575 0zm2255214 681496c41226,0 51215,-9831 51215,-51057l0 -18235c0,-41225 -9989,-51056 -51215,-51056l-450631 0 0 -255918c0,-54386 23150,-77536 77695,-77536l438897 0c41384,0 51215,-9831 51215,-51215l0 -18076c0,-41226 -9831,-51215 -51215,-51215l-466962 0c-125422,0 -178381,54545 -178381,178222l0 716379c0,123678 52959,178223 178381,178223l466962 0c41384,0 51215,-9990 51215,-51216l0 -18076c0,-41384 -9831,-51215 -51215,-51215l-438897 0c-54545,0 -77695,-23150 -77695,-77536l0 -300473 450631 0zm1094864 414320c0,41226 16490,46141 52800,61046 72621,26479 161733,39640 267493,39640 252429,0 379437,-87526 379437,-264163 0,-131923 -65962,-199628 -192969,-278909l-249258 -155072c-80866,-52801 -115433,-85782 -115433,-156817 0,-90697 61046,-127008 212789,-127008 94186,0 176637,13161 247514,39641 34725,13160 49630,1585 49630,-39641l0 -21405c0,-39641 -9990,-46300 -49630,-61205 -67706,-26321 -150157,-39482 -247514,-39482 -231023,0 -344870,74207 -344870,244184 0,108932 54386,196458 163318,262419l244342 150157c110517,67706 151743,105602 151743,184882 0,104016 -75950,140327 -245928,140327 -105601,0 -196298,-14905 -273835,-42970 -34725,-13161 -49629,0 -49629,41226l0 23150z"/>
 </g>
</svg>
